<svg width="69" height="69" viewBox="0 0 69 69" fill="none" xmlns="http://www.w3.org/2000/svg">
<circle cx="34.0866" cy="34.0866" r="34.0867" transform="rotate(180 34.0866 34.0866)" fill="#E0EFF6"/>
<path fill-rule="evenodd" clip-rule="evenodd" d="M26.7998 33.5588C26.7998 33.3586 26.8854 33.1667 27.0379 33.0251C27.1903 32.8836 27.397 32.8041 27.6125 32.8041L42.2418 32.8041C42.4574 32.8041 42.6641 32.8836 42.8165 33.0251C42.9689 33.1667 43.0546 33.3586 43.0546 33.5588C43.0546 33.7589 42.9689 33.9509 42.8165 34.0924C42.6641 34.234 42.4574 34.3135 42.2418 34.3135L27.6125 34.3135C27.397 34.3135 27.1903 34.234 27.0379 34.0924C26.8854 33.9509 26.7998 33.7589 26.7998 33.5588Z" fill="black"/>
<path fill-rule="evenodd" clip-rule="evenodd" d="M25.4121 34.0929C25.3364 34.0227 25.2764 33.9395 25.2354 33.8478C25.1944 33.7561 25.1733 33.6578 25.1733 33.5585C25.1733 33.4593 25.1944 33.361 25.2354 33.2693C25.2764 33.1776 25.3364 33.0943 25.4121 33.0242L30.2885 28.4961C30.4412 28.3544 30.6481 28.2748 30.864 28.2748C31.0798 28.2748 31.2868 28.3544 31.4394 28.4961C31.592 28.6378 31.6777 28.83 31.6777 29.0304C31.6777 29.2308 31.592 29.423 31.4394 29.5647L27.1367 33.5585L31.4394 37.5523C31.592 37.694 31.6777 37.8862 31.6777 38.0866C31.6777 38.2871 31.592 38.4793 31.4394 38.621C31.2868 38.7627 31.0798 38.8423 30.864 38.8423C30.6481 38.8423 30.4412 38.7627 30.2885 38.621L25.4121 34.0929Z" fill="black"/>
</svg>
