<svg width="69" height="69" viewBox="0 0 69 69" fill="none" xmlns="http://www.w3.org/2000/svg">
<ellipse cx="34.0866" cy="34.0866" rx="34.0867" ry="34.0867" transform="rotate(180 34.0866 34.0866)" fill="#F9D9DA"/>
<path fill-rule="evenodd" clip-rule="evenodd" d="M41.1479 33.4682C41.1479 33.6681 41.0624 33.8598 40.9102 34.0011C40.758 34.1425 40.5516 34.2219 40.3363 34.2219L25.7275 34.2219C25.5123 34.2219 25.3059 34.1425 25.1536 34.0011C25.0014 33.8598 24.9159 33.6681 24.9159 33.4682C24.9159 33.2684 25.0014 33.0767 25.1536 32.9353C25.3059 32.794 25.5123 32.7146 25.7275 32.7146L40.3363 32.7146C40.5516 32.7146 40.758 32.794 40.9102 32.9353C41.0624 33.0767 41.1479 33.2684 41.1479 33.4682Z" fill="black"/>
<path fill-rule="evenodd" clip-rule="evenodd" d="M42.5335 32.9347C42.6091 33.0047 42.6691 33.0878 42.71 33.1794C42.7509 33.271 42.772 33.3691 42.772 33.4682C42.772 33.5674 42.7509 33.6655 42.71 33.7571C42.6691 33.8486 42.6091 33.9318 42.5335 34.0018L37.6639 38.5236C37.5115 38.6651 37.3048 38.7446 37.0893 38.7446C36.8738 38.7446 36.6671 38.6651 36.5147 38.5236C36.3623 38.3821 36.2767 38.1901 36.2767 37.99C36.2767 37.7899 36.3623 37.598 36.5147 37.4564L40.8113 33.4682L36.5147 29.48C36.3623 29.3385 36.2767 29.1466 36.2767 28.9465C36.2767 28.7463 36.3623 28.5544 36.5147 28.4129C36.6671 28.2714 36.8738 28.1919 37.0893 28.1919C37.3048 28.1919 37.5115 28.2714 37.6639 28.4129L42.5335 32.9347Z" fill="black"/>
</svg>
