<svg width="65" height="73" viewBox="0 0 65 73" fill="none" xmlns="http://www.w3.org/2000/svg">
<path d="M32.0415 0C14.3738 0 0 14.246 0 31.7566C0 33.6971 0 48.7087 0 48.9757C0 52.4778 2.87476 55.327 6.4083 55.327H8.91181C9.7936 57.791 12.1679 59.5612 14.9527 59.5612C18.4862 59.5612 21.361 56.712 21.361 53.2099V35.9908C21.361 32.4887 18.4862 29.6395 14.9527 29.6395C12.1679 29.6395 9.7936 31.4096 8.91181 33.8737H6.4083C5.65939 33.8737 4.9408 34.0028 4.2722 34.2378V31.7566C4.2722 16.5807 16.7295 4.23421 32.0415 4.23421C47.3535 4.23421 59.8108 16.5807 59.8108 31.7566V34.2378C59.1422 34.0028 58.4236 33.8737 57.6747 33.8737H55.1712C54.2894 31.4096 51.9151 29.6395 49.1303 29.6395C45.5968 29.6395 42.722 32.4887 42.722 35.9908V53.2099C42.722 56.712 45.5968 59.5612 49.1303 59.5612C49.777 59.5612 50.4013 59.465 50.9903 59.2875C50.1912 61.8933 47.745 63.7954 44.8581 63.7954H38.0824C37.2006 61.3314 34.8263 59.5612 32.0415 59.5612C28.508 59.5612 25.6332 62.4104 25.6332 65.9125C25.6332 69.4146 28.508 72.2638 32.0415 72.2638C34.8263 72.2638 37.2006 70.4937 38.0824 68.0296H44.8581C50.7473 68.0296 55.5386 63.281 55.5386 57.4441V55.327H57.6747C61.2083 55.327 64.083 52.4778 64.083 48.9757C64.083 48.7126 64.083 33.6956 64.083 31.7566C64.083 14.246 49.7092 0 32.0415 0ZM12.8166 35.9908C12.8166 34.8234 13.7749 33.8737 14.9527 33.8737C16.1306 33.8737 17.0888 34.8234 17.0888 35.9908V53.2099C17.0888 54.3773 16.1306 55.327 14.9527 55.327C13.7749 55.327 12.8166 54.3773 12.8166 53.2099V35.9908ZM6.4083 38.1079H8.5444V51.0928H6.4083C5.23046 51.0928 4.2722 50.1431 4.2722 48.9757V40.225C4.2722 39.0576 5.23046 38.1079 6.4083 38.1079ZM32.0415 68.0296C30.8637 68.0296 29.9054 67.0799 29.9054 65.9125C29.9054 64.7452 30.8637 63.7954 32.0415 63.7954C33.2194 63.7954 34.1776 64.7452 34.1776 65.9125C34.1776 67.0799 33.2194 68.0296 32.0415 68.0296ZM51.2664 53.2099C51.2664 54.3773 50.3082 55.327 49.1303 55.327C47.9525 55.327 46.9942 54.3773 46.9942 53.2099V35.9908C46.9942 34.8234 47.9525 33.8737 49.1303 33.8737C50.3082 33.8737 51.2664 34.8234 51.2664 35.9908V53.2099ZM59.8108 48.9757C59.8108 50.1431 58.8526 51.0928 57.6747 51.0928H55.5386V38.1079H57.6747C58.8526 38.1079 59.8108 39.0576 59.8108 40.225V48.9757Z" fill="#07484A"/>
</svg>
