<svg width="69" height="69" viewBox="0 0 69 69" fill="none" xmlns="http://www.w3.org/2000/svg">
<path fill-rule="evenodd" clip-rule="evenodd" d="M34.0867 0C15.2611 0 0 15.2611 0 34.0867C0 52.9123 15.2611 68.1734 34.0867 68.1734C52.9123 68.1734 68.1734 52.9123 68.1734 34.0867C68.1734 25.0464 64.5822 16.3763 58.1897 9.98377C51.7972 3.59127 43.1271 0 34.0867 0ZM61.356 34.0865C57.4525 32.9144 53.399 32.3173 49.3233 32.314C46.8986 32.3464 44.481 32.5859 42.097 33.0298C41.2448 30.9505 40.3585 28.9394 39.4041 26.9283C45.0099 24.1275 50.1217 20.4317 54.5386 15.9865C58.9629 20.9742 61.3905 27.4194 61.356 34.0865ZM37.0525 22.4291C42.1102 19.8919 46.7164 16.5409 50.6872 12.5098C45.9322 8.83502 40.0965 6.83386 34.087 6.81734C31.8805 6.82624 29.6831 7.10091 27.5423 7.63542C31.0977 12.3081 34.2777 17.2547 37.0525 22.4291ZM22.565 9.4078C26.2593 14.1731 29.5542 19.2351 32.4161 24.5423C26.4289 26.8803 20.0617 28.0936 13.6343 28.1214C11.6181 28.0994 9.60434 27.9743 7.60094 27.7465C9.53777 19.6746 15.0458 12.9245 22.565 9.4078ZM6.81734 32.7916V34.0868C6.83314 40.8126 9.33395 47.2953 13.8392 52.2892C19.1431 43.6637 27.4073 37.2656 37.0863 34.2914C36.3705 32.5189 35.5525 30.8146 34.7344 29.1103L34.7344 29.1103L34.7344 29.1102L34.7344 29.1102C28.0274 31.8143 20.8662 33.2142 13.6347 33.2347C11.3553 33.2268 9.07857 33.0788 6.81734 32.7916ZM17.6579 55.7998C22.3335 47.7086 29.934 41.7185 38.8939 39.0632C41.2906 45.6863 42.9927 52.5404 43.9728 59.5153C35.1618 62.9817 25.1794 61.5851 17.6579 55.8339V55.7998ZM43.9386 37.9044C46.114 44.1231 47.7338 50.5223 48.7789 57.0271C55.0375 53.03 59.3954 46.6533 60.8456 39.3702C57.1303 38.1325 53.2403 37.4995 49.3243 37.4954C47.5219 37.5117 45.7227 37.6484 43.9386 37.9044Z" fill="#07484A"/>
</svg>
