<svg width="69" height="70" viewBox="0 0 69 70" fill="none" xmlns="http://www.w3.org/2000/svg">
<path d="M68.1734 7.72632V61.8106C68.1734 66.0777 64.7821 69.5369 60.5986 69.5369H46.3958C45.3499 69.5369 44.5021 68.6721 44.5021 67.6053V44.4264H53.3646C54.2647 44.4265 55.0405 43.7806 55.2205 42.8811L56.5839 35.9274C56.6402 35.6465 56.5712 35.3546 56.3956 35.1307C56.22 34.9068 55.956 34.7741 55.675 34.7685H44.5021V22.2132C44.5021 21.6798 44.926 21.2474 45.449 21.2474H54.9175C55.9634 21.2474 56.8112 20.3826 56.8112 19.3158V13.5211C56.8112 12.4543 55.9634 11.5895 54.9175 11.5895H45.449C39.1738 11.5895 34.0867 16.7783 34.0867 23.179V34.7685H29.4282C28.3823 34.7685 27.5345 35.6333 27.5345 36.7V42.4948C27.5345 43.5616 28.3823 44.4264 29.4282 44.4264H34.0867V67.6053C34.0867 68.6721 33.2389 69.5369 32.193 69.5369H7.57483C3.39136 69.5369 0 66.0777 0 61.8106V7.72632C0 3.45919 3.39136 0 7.57483 0H60.5986C64.7821 0 68.1734 3.45919 68.1734 7.72632Z" fill="#07484A"/>
</svg>
