<svg width="69" height="69" viewBox="0 0 69 69" fill="none" xmlns="http://www.w3.org/2000/svg">
<path fill-rule="evenodd" clip-rule="evenodd" d="M49.6303 0H19.0886C8.54624 0 0 8.54624 0 19.0886V49.6303C0 60.1726 8.54624 68.7188 19.0886 68.7188H49.6303C60.1726 68.7188 68.7188 60.1726 68.7188 49.6303V19.0886C68.7188 8.54624 60.1726 0 49.6303 0ZM62.0377 49.6301C62.0167 56.4739 56.4739 62.0167 49.6301 62.0377H19.0884C12.2446 62.0167 6.70182 56.4739 6.68086 49.6301V19.0884C6.70182 12.2446 12.2446 6.70182 19.0884 6.68086H49.6301C56.4739 6.70182 62.0167 12.2446 62.0377 19.0884V49.6301ZM52.4938 20.0431C54.6023 20.0431 56.3115 18.3339 56.3115 16.2254C56.3115 14.1169 54.6023 12.4077 52.4938 12.4077C50.3853 12.4077 48.6761 14.1169 48.6761 16.2254C48.6761 18.3339 50.3853 20.0431 52.4938 20.0431ZM34.3595 17.1799C24.8715 17.1799 17.1798 24.8715 17.1798 34.3596C17.1798 43.8477 24.8715 51.5393 34.3595 51.5393C43.8476 51.5393 51.5392 43.8477 51.5392 34.3596C51.5494 29.8001 49.7427 25.4245 46.5187 22.2005C43.2946 18.9764 38.919 17.1697 34.3595 17.1799ZM23.8607 34.3594C23.8607 40.1577 28.5611 44.8581 34.3594 44.8581C40.1577 44.8581 44.8581 40.1577 44.8581 34.3594C44.8581 28.5611 40.1577 23.8607 34.3594 23.8607C28.5611 23.8607 23.8607 28.5611 23.8607 34.3594Z" fill="#07484A"/>
</svg>
