<svg width="63" height="45" viewBox="0 0 63 45" fill="none" xmlns="http://www.w3.org/2000/svg">
<path d="M62.7196 20.8898V24.1047C62.7196 24.9924 62.0175 25.7121 61.1516 25.7121H10.4428L24.3979 39.986C24.6947 40.2879 24.8617 40.6987 24.8617 41.1273C24.8617 41.5559 24.6947 41.9668 24.3979 42.2686L22.1714 44.519C21.8769 44.8233 21.4762 44.9945 21.0581 44.9945C20.64 44.9945 20.2392 44.8233 19.9448 44.519L0.689915 24.8119C0.248707 24.3602 0.000548959 23.7473 0 23.1081V21.8864C0.00722531 21.2485 0.254378 20.6381 0.689915 20.1825L19.9448 0.475474C20.2392 0.171168 20.64 0 21.0581 0C21.4762 0 21.8769 0.171168 22.1714 0.475474L24.3979 2.75802C24.6929 3.05431 24.8591 3.45986 24.8591 3.88322C24.8591 4.30658 24.6929 4.71213 24.3979 5.00842L10.4428 19.2824H61.1516C62.0175 19.2824 62.7196 20.002 62.7196 20.8898Z" fill="black"/>
</svg>
