<svg width="69" height="69" viewBox="0 0 69 69" fill="none" xmlns="http://www.w3.org/2000/svg">
<path fill-rule="evenodd" clip-rule="evenodd" d="M7.63542 0H61.0834C65.3003 0 68.7188 3.4185 68.7188 7.63542V61.0834C68.7188 65.3003 65.3003 68.7188 61.0834 68.7188H7.63542C3.4185 68.7188 0 65.3003 0 61.0834V7.63542C0 3.4185 3.4185 0 7.63542 0ZM19.0884 57.2658C20.1427 57.2658 20.9973 56.4112 20.9973 55.357V28.633C20.9973 27.5787 20.1427 26.7241 19.0884 26.7241H13.3619C12.3076 26.7241 11.453 27.5787 11.453 28.633V55.357C11.453 56.4112 12.3076 57.2658 13.3619 57.2658H19.0884ZM16.2255 22.9061C13.0628 22.9061 10.499 20.3423 10.499 17.1796C10.499 14.0169 13.0628 11.453 16.2255 11.453C19.3882 11.453 21.9521 14.0169 21.9521 17.1796C21.9521 20.3423 19.3882 22.9061 16.2255 22.9061ZM55.357 57.2657C56.4112 57.2657 57.2658 56.4111 57.2658 55.3568V37.7953C57.3897 31.7281 52.9045 26.5503 46.8816 25.8077C42.6708 25.4231 38.5906 27.3898 36.2684 30.9235V28.6328C36.2684 27.5786 35.4138 26.724 34.3595 26.724H28.633C27.5787 26.724 26.7241 27.5786 26.7241 28.6328V55.3568C26.7241 56.4111 27.5787 57.2657 28.633 57.2657H34.3595C35.4138 57.2657 36.2684 56.4111 36.2684 55.3568V41.0404C36.2684 37.8777 38.8323 35.3138 41.995 35.3138C45.1577 35.3138 47.7215 37.8777 47.7215 41.0404V55.3568C47.7215 56.4111 48.5762 57.2657 49.6304 57.2657H55.357Z" fill="#07484A"/>
</svg>
