<svg width="69" height="69" viewBox="0 0 69 69" fill="none" xmlns="http://www.w3.org/2000/svg">
<path d="M22.9775 52.1836C22.9601 52.0984 22.9348 52.0145 22.9015 51.9333C22.8683 51.8534 22.827 51.7761 22.779 51.7042C22.7311 51.631 22.6752 51.5631 22.6139 51.5018C22.5527 51.4406 22.4847 51.3846 22.4115 51.3367C22.3396 51.2887 22.2624 51.2475 22.1811 51.2142C22.1012 51.1809 22.0173 51.1543 21.9321 51.1383C21.7603 51.1036 21.5832 51.1036 21.4128 51.1383C21.3276 51.1543 21.2437 51.1809 21.1624 51.2142C21.0825 51.2475 21.0053 51.2887 20.9334 51.3367C20.8602 51.3846 20.7922 51.4406 20.731 51.5018C20.6697 51.5631 20.6138 51.631 20.5659 51.7042C20.5166 51.7761 20.4766 51.8534 20.4434 51.9333C20.4101 52.0145 20.3834 52.0984 20.3675 52.1836C20.3501 52.2688 20.3408 52.3567 20.3408 52.4433C20.3408 52.5298 20.3501 52.6177 20.3675 52.7029C20.3834 52.7882 20.4101 52.8721 20.4434 52.952C20.4766 53.0332 20.5166 53.1104 20.5659 53.1823C20.6138 53.2556 20.6697 53.3235 20.731 53.3847C20.7922 53.446 20.8602 53.5019 20.9334 53.5499C21.0053 53.5979 21.0825 53.6392 21.1624 53.6725C21.2437 53.7058 21.3276 53.7324 21.4128 53.7484C21.498 53.7657 21.5859 53.775 21.6725 53.775C21.759 53.775 21.8469 53.7657 21.9321 53.7484C22.0173 53.7324 22.1012 53.7058 22.1811 53.6725C22.2624 53.6392 22.3396 53.5978 22.4115 53.5499C22.4847 53.5019 22.5527 53.446 22.6139 53.3847C22.6752 53.3235 22.7311 53.2556 22.779 53.1823C22.827 53.1104 22.8683 53.0332 22.9015 52.952C22.9348 52.8721 22.9601 52.7882 22.9775 52.7029C22.9948 52.6177 23.0041 52.5298 23.0041 52.4433C23.0041 52.3567 22.9948 52.2688 22.9775 52.1836Z" fill="#07484A"/>
<path d="M61.2542 52.5942C61.249 52.5809 61.2436 52.5677 61.2381 52.5546C60.0124 49.6867 57.138 48.6267 53.7362 49.7886L44.459 52.3541C43.9226 50.7298 42.5847 49.3475 40.693 48.6455C40.6812 48.6412 40.6695 48.637 40.6577 48.633L30.4599 45.1718C29.6111 44.0747 26.9524 41.2673 21.9743 41.2673C18.4954 41.2673 15.4179 43.6539 13.6572 46.2552H1.33163C0.596172 46.2552 0 46.8514 0 47.5869V64.3757C0 65.1111 0.596172 65.7073 1.33163 65.7073H9.24912C9.98458 65.7073 10.5808 65.1111 10.5808 64.3757V63.2259H14.2937C15.0292 63.2259 15.6254 62.6298 15.6254 61.8943V61.5111C17.7898 61.6999 18.5017 62.1104 20.4896 63.2567C22.0183 64.1382 24.3288 65.4705 28.4896 67.3413C28.5089 67.35 28.5285 67.3583 28.5481 67.366C29.3467 67.6801 30.9077 68.1736 32.8323 68.1736C34.172 68.1736 35.688 67.9343 37.2442 67.229L57.7501 59.8869C57.7866 59.8738 57.8225 59.8592 57.8577 59.8429C59.8175 58.9413 62.7379 56.4001 61.2542 52.5942ZM7.91749 63.0439H2.66327V48.9184H7.91749V63.0439ZM12.9621 60.5625H10.5808V48.9184H12.9621V60.5625ZM56.7936 57.4003L36.2968 64.7391C36.2789 64.7455 36.2545 64.7551 36.2368 64.7622C36.2188 64.7696 36.2008 64.7773 36.1831 64.7854C33.3285 66.0973 30.615 65.3119 29.5516 64.8985C25.5325 63.09 23.3873 61.853 21.82 60.9493C19.6409 59.6927 18.5909 59.0871 15.6254 58.8422V48.117C16.8876 46.0482 19.3354 43.9305 21.9745 43.9305C26.5002 43.9305 28.4178 46.874 28.4932 46.9928C28.6558 47.2573 28.9057 47.4566 29.1996 47.5564L39.7828 51.1483C41.473 51.7827 42.3663 53.2302 41.9557 54.6737C41.7663 55.3403 41.3284 55.8932 40.7231 56.2305C40.1229 56.5649 39.4291 56.6475 38.7678 56.4646L26.8373 52.6838C26.1358 52.4616 25.3877 52.8499 25.1656 53.551C24.9433 54.2521 25.3316 55.0005 26.0328 55.2227L37.984 59.01C37.9967 59.014 38.0093 59.0178 38.0221 59.0214C38.4992 59.1571 38.985 59.2243 39.4679 59.2243C40.3518 59.2243 41.226 58.9991 42.0194 58.557C43.2462 57.8734 44.1334 56.753 44.5174 55.4021C44.548 55.2942 44.5752 55.1863 44.5988 55.0785L54.5971 52.3087C56.0411 51.8155 57.9367 51.6377 58.7807 53.5815C59.6542 55.8635 57.3838 57.1188 56.7936 57.4003Z" fill="#07484A"/>
<path d="M47.8133 17.5134C47.7959 17.4282 47.7706 17.3443 47.736 17.2631C47.7027 17.1832 47.6628 17.106 47.6135 17.034C47.5656 16.9608 47.5096 16.8929 47.4484 16.8316C47.3871 16.7704 47.3192 16.7145 47.246 16.6665C47.1741 16.6186 47.0968 16.5773 47.0169 16.544C46.9357 16.5107 46.8518 16.4841 46.7679 16.4681C46.5961 16.4335 46.419 16.4335 46.2473 16.4681C46.162 16.4841 46.0781 16.5107 45.9982 16.544C45.917 16.5773 45.8398 16.6186 45.7679 16.6665C45.6946 16.7145 45.6267 16.7704 45.5655 16.8316C45.5042 16.8929 45.4483 16.9608 45.4003 17.034C45.3524 17.106 45.3111 17.1832 45.2778 17.2631C45.2445 17.3443 45.2179 17.4282 45.2019 17.5134C45.1846 17.5987 45.1753 17.6865 45.1753 17.7731C45.1753 17.8597 45.1846 17.9475 45.2019 18.0328C45.2179 18.118 45.2445 18.2019 45.2778 18.2818C45.3111 18.363 45.3524 18.4403 45.4003 18.5122C45.4483 18.5854 45.5042 18.6533 45.5655 18.7146C45.6267 18.7758 45.6946 18.8318 45.7679 18.8797C45.8398 18.9276 45.917 18.9689 45.9982 19.0022C46.0781 19.0355 46.162 19.0608 46.2473 19.0781C46.3325 19.0954 46.4204 19.1047 46.5069 19.1047C46.5935 19.1047 46.6814 19.0954 46.7679 19.0781C46.8518 19.0608 46.9357 19.0355 47.0169 19.0022C47.0968 18.9689 47.1741 18.9276 47.246 18.8797C47.3192 18.8318 47.3871 18.7758 47.4484 18.7146C47.5096 18.6533 47.5656 18.5854 47.6135 18.5122C47.6628 18.4403 47.7027 18.363 47.736 18.2818C47.7706 18.2019 47.7959 18.118 47.8133 18.0328C47.8306 17.9475 47.8386 17.8597 47.8386 17.7731C47.8386 17.6865 47.8306 17.5987 47.8133 17.5134Z" fill="#07484A"/>
<path d="M66.8479 4.50994H58.9304C58.1949 4.50994 57.5987 5.10611 57.5987 5.84157V6.9913H53.8857C53.1503 6.9913 52.5541 7.58748 52.5541 8.32294V8.70618C50.3897 8.51722 49.6778 8.10681 47.6901 6.96054C46.1613 6.079 43.8508 4.7467 39.6899 2.87589C39.6706 2.8671 39.6511 2.85898 39.6313 2.85126C38.2769 2.31834 34.7271 1.26981 30.9359 2.98802L25.5774 4.90663L21.0606 0.390002C20.5406 -0.130001 19.6974 -0.130001 19.1774 0.390002L4.34861 15.2187C3.86896 15.6984 3.77694 16.5303 4.34861 17.102L29.6878 42.4412C30.0933 42.8468 31.0428 42.9695 31.5712 42.4412L45.1092 28.9033C45.4612 28.9337 45.8264 28.9501 46.205 28.9501C49.684 28.9501 52.7614 26.5635 54.522 23.9623H66.8479C67.5833 23.9623 68.1795 23.3661 68.1795 22.6307V5.84157C68.1795 5.10611 67.5833 4.50994 66.8479 4.50994ZM20.1189 3.21479L23.1539 6.24985C22.2517 6.8078 21.2087 7.10636 20.1189 7.10636C19.0289 7.10636 17.986 6.80794 17.0838 6.24985L20.1189 3.21479ZM10.2086 19.1954L7.17354 16.1603L10.2086 13.1252C10.7665 14.0274 11.0651 15.0705 11.0651 16.1603C11.0651 17.2501 10.7667 18.2931 10.2086 19.1954ZM30.6296 39.6163L27.5951 36.5818C29.4478 35.4384 31.8111 35.4384 33.664 36.5818L30.6296 39.6163ZM35.5826 34.6634C32.6399 32.5288 28.6192 32.5288 25.6766 34.6634L12.1271 21.1138C13.1669 19.6836 13.7284 17.9657 13.7284 16.1603C13.7284 14.3547 13.1671 12.6369 12.1271 11.2067L15.1655 8.16847C16.5956 9.20834 18.3134 9.76975 20.119 9.76975C21.9246 9.76975 23.6424 9.20834 25.0725 8.16847L27.9527 11.0487C27.3313 11.1404 26.7252 11.3452 26.1601 11.6601C25.2056 12.192 24.4567 12.9884 23.9903 13.952C22.4882 14.2302 21.0976 14.9574 20.0067 16.0481C17.0472 19.0078 17.0472 23.8234 20.0069 26.7831C21.4866 28.2628 23.4304 29.0028 25.3743 29.0028C27.3181 29.0028 29.262 28.2629 30.7418 26.7831C31.7046 25.8203 32.3791 24.637 32.7169 23.3475L37.213 24.8734C36.7069 27.2181 37.2253 29.6849 38.6236 31.6224L35.5826 34.6634ZM27.4865 21.5717C27.4982 21.576 27.51 21.5803 27.5218 21.5843L30.1845 22.488C29.9835 23.3955 29.5285 24.2299 28.8586 24.8999C26.9374 26.8209 23.8112 26.8212 21.8902 24.8999C19.9689 22.9787 19.9689 19.8527 21.8902 17.9315C22.3536 17.4678 22.9005 17.1055 23.4964 16.8598C23.7422 18.9054 25.2152 20.7288 27.4865 21.5717ZM40.5424 29.7035C40.0284 28.8659 39.7375 27.9099 39.6916 26.9342C40.3295 27.3954 41.109 27.8472 42.0401 28.2058L40.5424 29.7035ZM52.554 22.0997C51.2919 24.1688 48.844 26.2865 46.205 26.2865C45.7112 26.2865 45.2485 26.2514 44.8159 26.1888C44.8141 26.1885 44.8124 26.1882 44.8107 26.188C41.9349 25.7703 40.3879 24.1358 39.878 23.4886C39.8509 23.4487 39.7351 23.2973 39.718 23.2721C39.5628 22.9949 39.3085 22.7719 38.9841 22.6618L28.3966 19.0684C26.707 18.4343 25.8139 16.9875 26.2232 15.5445C26.2235 15.5436 26.2237 15.5426 26.224 15.5417C26.2244 15.5407 26.2247 15.5395 26.2249 15.5384C26.4152 14.8739 26.8523 14.3227 27.4563 13.9862C28.0563 13.6519 28.75 13.5689 29.4115 13.7523L41.342 17.5329C42.0433 17.7554 42.7916 17.3669 43.0138 16.6657C43.2359 15.9646 42.8477 15.2163 42.1466 14.994L32.6581 11.9872L32.5752 11.9044C32.5744 11.9036 32.5736 11.9026 32.5727 11.9018L27.6603 6.98944L31.8826 5.4775C31.8969 5.47231 31.9145 5.46579 31.9286 5.46006C31.9322 5.45859 31.9391 5.45593 31.9426 5.45447C31.9607 5.44714 31.9785 5.43942 31.9962 5.4313C34.8507 4.11937 37.5641 4.90463 38.6276 5.31824C42.6469 7.12673 44.7922 8.36368 46.3595 9.26746C48.5386 10.5241 49.5886 11.1296 52.554 11.3745V22.0997ZM57.5987 21.2988H55.2174V9.65457H57.5987V21.2988ZM65.5162 21.2988H60.262V7.1732H65.5162V21.2988Z" fill="#07484A"/>
</svg>
