<svg width="69" height="69" viewBox="0 0 69 69" fill="none" xmlns="http://www.w3.org/2000/svg">
<path d="M67.4827 14.7438L40.9315 0.164229C40.5326 -0.0547429 40.0488 -0.0547429 39.6499 0.164229L29.6422 5.65933C29.4311 5.71498 29.2339 5.82109 29.0706 5.97348L13.0992 14.7438C12.6732 14.9773 12.4085 15.4246 12.4085 15.911V33.5442C9.71426 34.3868 7.24524 35.8728 5.19232 37.9262C-0.158701 43.2767 -1.52298 51.4374 1.79748 58.2328C2.11996 58.8934 2.9173 59.1675 3.57786 58.8445C4.23893 58.5215 4.51252 57.7242 4.19004 57.0636C1.3689 51.2897 2.52825 44.356 7.07516 39.809C9.91867 36.9655 13.6989 35.3994 17.72 35.3994C21.7411 35.3994 25.5213 36.9655 28.3648 39.809C31.2078 42.652 32.7739 46.4323 32.7739 50.4534C32.7739 54.4744 31.2078 58.2547 28.3643 61.0982C23.8174 65.6451 16.8836 66.8045 11.1098 63.9833C10.4492 63.6603 9.65185 63.9344 9.32937 64.595C9.00638 65.2561 9.27996 66.0534 9.94104 66.3759C12.4163 67.5857 15.072 68.1734 17.7085 68.1734C22.308 68.1729 26.8461 66.3826 30.2477 62.981C31.8075 61.4212 33.0402 59.6216 33.9124 57.6654L39.6499 60.8158C39.8496 60.9255 40.0702 60.9801 40.2907 60.9801C40.5112 60.9801 40.7323 60.9255 40.9315 60.8158L67.4827 46.2367C67.9087 46.0027 68.1734 45.5554 68.1734 45.0696V35.8161C68.1734 35.0806 67.5774 34.4845 66.8419 34.4845C66.1064 34.4845 65.5104 35.0806 65.5104 35.8161V44.2816L41.6264 57.3965V31.2759L49.5088 26.9474V33.8089C49.5088 34.2801 49.7574 34.716 50.1626 34.9553C50.3717 35.0785 50.6058 35.1404 50.8403 35.1404C51.0609 35.1404 51.2819 35.0858 51.4822 34.9755L57.1718 31.8439C57.5972 31.6098 57.8609 31.163 57.8609 30.6778V22.361L65.5104 18.161V25.1645C65.5104 25.8999 66.1064 26.496 66.8419 26.496C67.5774 26.496 68.1734 25.8999 68.1734 25.1645V15.911C68.1734 15.4252 67.9087 14.9773 67.4827 14.7438ZM40.2907 2.85014L64.0754 15.911L56.5726 20.0308L32.7879 6.97004L40.2907 2.85014ZM40.2907 28.9712L16.506 15.911L24.2839 11.6397L48.0691 24.7L40.2907 28.9712ZM50.8351 23.1812L27.0505 10.1209L30.0214 8.48932L53.8066 21.5496L50.8351 23.1812ZM30.2477 37.9262C26.9012 34.5797 22.4521 32.7369 17.72 32.7369C16.8249 32.7369 15.9406 32.803 15.0715 32.9325V18.161L38.9639 31.2806V57.4012L34.8169 55.1241C35.2252 53.6209 35.4364 52.0533 35.4364 50.4534C35.4364 45.7213 33.5936 41.2721 30.2477 37.9262ZM55.1984 29.8908L52.1718 31.5568V25.4854L55.1984 23.8236V29.8908Z" fill="#07484A"/>
<path d="M66.8418 29.1521C66.4917 29.1521 66.1479 29.2946 65.9003 29.5422C65.6528 29.7898 65.5103 30.1331 65.5103 30.4836C65.5103 30.8337 65.6528 31.1769 65.9003 31.4245C66.1479 31.6726 66.4917 31.8146 66.8418 31.8146C67.1918 31.8146 67.5356 31.6726 67.7832 31.4245C68.0308 31.1769 68.1733 30.8337 68.1733 30.4836C68.1733 30.1331 68.0308 29.7898 67.7832 29.5422C67.5356 29.2946 67.1918 29.1521 66.8418 29.1521Z" fill="#07484A"/>
<path d="M13.2431 51.7849C13.5837 51.7849 13.9249 51.6548 14.1845 51.3953C14.7046 50.8752 14.7046 50.0321 14.1845 49.5119L13.2623 48.5892H21.1318C23.0406 48.5892 24.5937 50.1423 24.5937 52.0512C24.5937 53.96 23.0406 55.5131 21.1318 55.5131H16.4689C15.7334 55.5131 15.1373 56.1092 15.1373 56.8446C15.1373 57.5796 15.7334 58.1756 16.4689 58.1756H21.1318C24.5089 58.1756 27.2567 55.4283 27.2567 52.0512C27.2567 48.674 24.5089 45.9267 21.1318 45.9267H13.2623L14.1845 45.004C14.7046 44.4839 14.7046 43.6408 14.1845 43.1207C13.6649 42.6011 12.8218 42.6011 12.3016 43.1207L9.10601 46.3163C8.58641 46.8364 8.58641 47.6795 9.10601 48.1997L12.3016 51.3948C12.5617 51.6548 12.9024 51.7849 13.2431 51.7849Z" fill="#07484A"/>
<path d="M6.13508 63.3728C5.75643 63.3728 5.38038 63.2116 5.11772 62.899L5.11512 62.8959C4.64181 62.3331 4.71462 61.4936 5.2774 61.0203C5.84017 60.5465 6.68017 60.6193 7.15348 61.1821C7.62627 61.7454 7.55501 62.5864 6.99224 63.0597C6.74206 63.2699 6.43779 63.3728 6.13508 63.3728Z" fill="#07484A"/>
</svg>
