<svg width="63" height="45" viewBox="0 0 63 45" fill="none" xmlns="http://www.w3.org/2000/svg">
<path d="M0 24.1047V20.8898C0 20.002 0.702013 19.2824 1.56799 19.2824H52.2768L38.3217 5.00842C38.0248 4.7066 37.8578 4.29575 37.8578 3.86715C37.8578 3.43855 38.0248 3.02769 38.3217 2.72587L40.5482 0.475474C40.8426 0.171168 41.2434 0 41.6615 0C42.0796 0 42.4803 0.171168 42.7747 0.475474L62.0296 20.1825C62.4709 20.6343 62.719 21.2472 62.7196 21.8864V23.1081C62.7123 23.7459 62.4652 24.3563 62.0296 24.8119L42.7747 44.519C42.4803 44.8233 42.0796 44.9945 41.6615 44.9945C41.2434 44.9945 40.8426 44.8233 40.5482 44.519L38.3217 42.2364C38.0267 41.9402 37.8604 41.5346 37.8604 41.1112C37.8604 40.6879 38.0267 40.2823 38.3217 39.986L52.2768 25.7121H1.56799C0.702013 25.7121 0 24.9924 0 24.1047Z" fill="black"/>
</svg>
