<svg width="67" height="58" viewBox="0 0 67 58" fill="none" xmlns="http://www.w3.org/2000/svg">
<path d="M66.7123 8.29942C64.9884 10.6182 62.9047 12.6408 60.5416 14.2893C60.5416 14.895 60.5416 15.5007 60.5416 16.1401C60.5606 27.1399 56.2034 37.6873 48.447 45.4177C40.6905 53.1481 30.1836 57.415 19.2817 57.2617C12.9791 57.2829 6.75719 55.8317 1.10337 53.0217C0.798518 52.8874 0.601891 52.5833 0.603049 52.2477V51.8775C0.603049 51.3943 0.991319 51.0026 1.47027 51.0026C7.6656 50.7967 13.6399 48.6306 18.5479 44.8108C12.9403 44.6969 7.89486 41.3471 5.57291 36.1961C5.45563 35.9148 5.49215 35.5921 5.66928 35.3447C5.8464 35.0973 6.13854 34.9608 6.44014 34.9847C8.14442 35.1575 9.86574 34.9975 11.5101 34.5136C5.31971 33.2178 0.668346 28.0354 0.00266288 21.6925C-0.0209964 21.3883 0.114226 21.0935 0.35948 20.9148C0.604733 20.7361 0.924566 20.6993 1.20344 20.8176C2.86466 21.5568 4.65794 21.9461 6.47349 21.9617C1.04927 18.3716 -1.29363 11.5431 0.769823 5.33813C0.982821 4.73518 1.49455 4.28976 2.11695 4.16556C2.73935 4.04135 3.38062 4.25668 3.80511 4.73241C11.1248 12.5882 21.1821 17.2694 31.8565 17.789C31.5831 16.6888 31.4486 15.5582 31.4562 14.4239C31.5561 8.47652 35.2053 3.17847 40.6955 1.0101C46.1856 -1.15827 52.4302 0.232186 56.5057 4.53051C59.2838 3.99683 61.9695 3.05584 64.4775 1.73747C64.6612 1.62181 64.8942 1.62181 65.0779 1.73747C65.1925 1.92281 65.1925 2.15785 65.0779 2.34319C63.8631 5.14835 61.8109 7.50112 59.2074 9.0734C61.4872 8.8068 63.727 8.26448 65.8784 7.45815C66.0595 7.33381 66.2976 7.33381 66.4788 7.45815C66.6305 7.52816 66.744 7.66204 66.789 7.82414C66.8339 7.98624 66.8059 8.1601 66.7123 8.29942Z" fill="#07484A"/>
</svg>
