<svg width="69" height="69" viewBox="0 0 69 69" fill="none" xmlns="http://www.w3.org/2000/svg">
<path fill-rule="evenodd" clip-rule="evenodd" d="M12.6803 6.8174H66.4691C67.4104 6.8174 68.1734 7.58045 68.1734 8.52173V10.2261C68.1488 13.0549 67.385 15.828 65.9578 18.2705L57.9474 32.3484C56.2141 35.4638 52.9561 37.4237 49.3917 37.4954H28.1556C27.4189 37.4796 26.6866 37.3766 25.9741 37.1887L22.5654 44.3128H59.6518C60.593 44.3128 61.3561 45.0758 61.3561 46.0171V49.4258C61.3561 50.3671 60.593 51.1301 59.6518 51.1301H17.0434C16.1105 51.1517 15.2381 50.6699 14.7595 49.8689L14.0096 48.5736C13.6155 47.815 13.6155 46.9121 14.0096 46.1535L20.3498 33.5414C20.0035 33.1758 19.6952 32.7761 19.4294 32.3484L4.84031 6.8174H1.70434C0.763057 6.8174 0 6.05434 0 5.11306V1.70439C0 0.763111 0.763057 5.39834e-05 1.70434 5.39834e-05H4.84031C7.28559 -0.00965396 9.54877 1.29103 10.7714 3.40873L12.6803 6.8174ZM20.4523 54.5387C16.6872 54.5387 13.6349 57.591 13.6349 61.3561C13.6349 65.1212 16.6872 68.1734 20.4523 68.1734C24.2174 68.1734 27.2696 65.1212 27.2696 61.3561C27.2696 57.591 24.2174 54.5387 20.4523 54.5387ZM61.3563 61.3561C61.3563 65.1212 58.3041 68.1734 54.539 68.1734C50.7739 68.1734 47.7216 65.1212 47.7216 61.3561C47.7216 57.591 50.7739 54.5387 54.539 54.5387C58.3041 54.5387 61.3563 57.591 61.3563 61.3561Z" fill="#07484A"/>
</svg>
