<svg width="69" height="54" viewBox="0 0 69 54" fill="none" xmlns="http://www.w3.org/2000/svg">
<path fill-rule="evenodd" clip-rule="evenodd" d="M66.81 7.63542H1.90886C0.854624 7.63542 0 6.7808 0 5.72657V1.90886C0 0.854624 0.854624 0 1.90886 0H66.81C67.8642 0 68.7188 0.854624 68.7188 1.90886V5.72657C68.7188 6.7808 67.8642 7.63542 66.81 7.63542ZM68.7188 28.6328V24.8151C68.7188 23.7609 67.8642 22.9063 66.81 22.9063H1.90886C0.854624 22.9063 0 23.7609 0 24.8151V28.6328C0 29.6871 0.854624 30.5417 1.90886 30.5417H66.81C67.8642 30.5417 68.7188 29.6871 68.7188 28.6328ZM68.7188 47.7214V51.5391C68.7188 52.5933 67.8642 53.448 66.81 53.448H1.90886C0.854624 53.448 0 52.5933 0 51.5391V47.7214C0 46.6672 0.854624 45.8125 1.90886 45.8125H66.81C67.8642 45.8125 68.7188 46.6672 68.7188 47.7214Z" fill="#07484A"/>
</svg>
