<svg width="67" height="67" viewBox="0 0 67 67" fill="none" xmlns="http://www.w3.org/2000/svg">
<path fill-rule="evenodd" clip-rule="evenodd" d="M33.405 0C14.9559 0 0 14.9559 0 33.405C0 51.854 14.9559 66.81 33.405 66.81C51.854 66.81 66.81 51.854 66.81 33.405C66.81 24.5454 63.2905 16.0487 57.0259 9.78409C50.7612 3.51944 42.2645 0 33.405 0ZM33.4051 10.0215C38.9398 10.0215 43.4266 14.5083 43.4266 20.043C43.4266 25.5777 38.9398 30.0645 33.4051 30.0645C27.8704 30.0645 23.3836 25.5777 23.3836 20.043C23.3836 14.5083 27.8704 10.0215 33.4051 10.0215ZM33.4041 56.7444C40.8035 56.7444 47.7664 53.2421 52.1777 47.3014C52.8612 46.3023 52.9507 45.0115 52.4115 43.9275L51.6432 42.3575C49.9624 38.927 46.4774 36.7505 42.6573 36.7455H24.1509C20.2764 36.7496 16.7513 38.9869 15.0982 42.4911L14.3967 43.9609C13.8706 45.0359 13.9598 46.3102 14.6305 47.3014C19.0418 53.2421 26.0047 56.7444 33.4041 56.7444Z" fill="#07484A"/>
</svg>
