<svg width="69" height="69" viewBox="0 0 69 69" fill="none" xmlns="http://www.w3.org/2000/svg">
<path fill-rule="evenodd" clip-rule="evenodd" d="M52.9707 47.5512L68.2416 62.8405C68.9236 63.599 68.89 64.7602 68.1652 65.4779L65.4928 68.1535C65.1344 68.5153 64.6465 68.7188 64.1376 68.7188C63.6286 68.7188 63.1407 68.5153 62.7823 68.1535L47.5114 52.8642C47.0891 52.441 46.7057 51.9805 46.3661 51.4882L43.5028 47.6659C38.7652 51.4536 32.8821 53.5158 26.8194 53.514C14.3264 53.5575 3.47038 44.9291 0.678514 32.7373C-2.11335 20.5454 3.90401 8.04386 15.1681 2.63389C26.4323 -2.77608 39.937 0.349369 47.687 10.1599C55.4371 19.9704 55.3642 33.8477 47.5114 43.576L51.3291 46.2134C51.9253 46.5955 52.4761 47.0443 52.9707 47.5512ZM7.73049 26.7577C7.73049 37.3127 16.2767 45.8693 26.8191 45.8693C31.8817 45.8693 36.7369 43.8557 40.3167 40.2716C43.8965 36.6875 45.9076 31.8264 45.9076 26.7577C45.9076 16.2027 37.3614 7.64614 26.8191 7.64614C16.2767 7.64614 7.73049 16.2027 7.73049 26.7577Z" fill="#07484A"/>
</svg>
